<?xml version="1.0" standalone="no"?>
<!DOCTYPE svg PUBLIC "-//W3C//DTD SVG 20010904//EN"
 "http://www.w3.org/TR/2001/REC-SVG-20010904/DTD/svg10.dtd">
<svg version="1.0" xmlns="http://www.w3.org/2000/svg"
 width="500.000000pt" height="500.000000pt" viewBox="0 0 500.000000 500.000000"
 preserveAspectRatio="xMidYMid meet">
<g transform="translate(0.000000,500.000000) scale(0.100000,-0.100000)"
fill="#000000" stroke="none">
<path d="M0 2500 l0 -2500 2500 0 2500 0 0 2500 0 2500 -2500 0 -2500 0 0
-2500z m2180 1099 c146 -38 276 -118 360 -223 25 -31 47 -56 50 -56 3 0 32 28
65 61 178 182 421 265 695 237 189 -19 329 -85 460 -217 73 -73 94 -102 138
-191 103 -210 115 -325 110 -1137 -3 -569 -3 -582 -24 -609 -48 -64 -62 -69
-219 -69 -157 0 -171 5 -219 69 -21 27 -21 41 -26 704 -6 649 -7 680 -27 745
-39 128 -114 211 -228 253 -76 27 -232 25 -307 -5 -75 -29 -156 -103 -192
-176 -59 -116 -59 -112 -65 -835 l-6 -665 -22 -31 c-35 -49 -72 -59 -213 -59
-141 0 -178 10 -213 59 l-22 31 -5 660 c-6 741 -6 745 -79 867 -45 74 -98 118
-178 148 -140 52 -293 31 -409 -56 -43 -32 -98 -117 -126 -195 l-23 -64 -5
-677 c-5 -664 -5 -677 -26 -704 -48 -64 -62 -69 -217 -69 -162 0 -189 9 -226
75 -21 38 -21 42 -21 1020 0 978 0 982 21 1020 32 56 70 73 171 78 48 3 113 1
145 -3 48 -6 63 -13 95 -45 25 -24 38 -47 38 -64 0 -14 3 -26 6 -26 4 0 27 15
53 34 61 45 154 90 226 111 129 38 324 39 465 4z"/>
</g>
</svg>
